<svg xmlns="http://www.w3.org/2000/svg" width="888" height="888" fill="none" xmlns:v="https://vecta.io/nano"><rect width="888" height="888" rx="128" fill="#fff"/><path d="M204.621 324.311c9.348-65.439 54.251-110.342 119.689-119.69C427.778 189.84 444 443.999 444 443.999m0 0s-16.222 254.161-119.69 239.38c-65.438-9.348-110.341-54.251-119.689-119.69C189.84 460.222 444 443.999 444 443.999zm0 0s16.222-254.159 119.69-239.378c65.438 9.348 110.341 54.251 119.689 119.69 7.612 53.282-56.097 83.428-119.689 100.136S444 443.999 444 443.999zm0 0s254.16 16.223 239.379 119.69c-9.348 65.439-54.251 110.342-119.689 119.69-53.282 7.612-83.428-56.097-100.136-119.69S444 443.999 444 443.999z" stroke="#260698" stroke-width="88"/></svg>